<?xml version="1.0" encoding="utf-8"?>
<!-- Generator: Adobe Illustrator 19.0.0, SVG Export Plug-In . SVG Version: 6.00 Build 0)  -->
<svg version="1.1" xmlns="http://www.w3.org/2000/svg" xmlns:xlink="http://www.w3.org/1999/xlink" x="0px" y="0px"
	 viewBox="-223 283 164 228" style="enable-background:new -223 283 164 228;" xml:space="preserve">
<style type="text/css">
	.st0{display:none;}
	.st1{display:inline;}
	.st2{fill:#FFFFFF;}
	.st3{fill:#E74A24;}
	.st4{fill:none;}
	.st5{fill:url(#SVGID_1_);}
	.st6{fill:#E4262A;}
	.st7{font-family:'Poppins-Regular';}
	.st8{font-size:28px;}
</style>
<g id="Calque_2" class="st0">
	<rect x="-233.5" y="269.3" class="st1" width="186" height="258"/>
</g>
<g id="Calque_1">
	<g>
		<circle class="st2" cx="-141.1" cy="342.3" r="59.3"/>
		<path class="st3" d="M-100.2,317.9c-3.2-2.1-6.5-3.9-9.9-4.7c-3.4-0.9-7-0.7-10.2,0.7l-0.6,0.3l-0.3,0.1l-0.2,0.1l-0.1,0l0,0l0,0
			c0,0-0.1,0,0,0l0,0c-0.4,0.3-0.9,0.5-1.3,0.7c-0.9,0.5-1.8,0.9-2.7,1.2c-1.9,0.6-3.8,1.1-5.9,0.9c-1-0.1-2-0.5-2.9-1.1
			c-0.9-0.6-1.5-1.4-2-2.3c-0.9-1.8-1.2-3.7-1.3-5.6c0.3,1.9,0.9,3.7,1.9,5.2c0.5,0.7,1.2,1.4,1.9,1.8c0.8,0.4,1.6,0.6,2.5,0.7
			c1.7,0.1,3.5-0.4,5.2-1.2c0.8-0.4,1.6-0.8,2.4-1.2c0.4-0.2,0.8-0.5,1.1-0.7l0.7-0.4c0.2-0.1,0.4-0.3,0.7-0.4
			c1.8-1,3.8-1.6,5.8-1.7c2-0.1,4.1,0.1,6,0.8c1.9,0.6,3.7,1.6,5.2,2.8C-102.6,314.9-101.2,316.3-100.2,317.9z"/>
		<path class="st4" d="M-172.3,334c-0.3,0.2,8.2,10.4,20.9,20c3.7,2.9,7.4,5.3,10.7,7.4c0.3-0.4,0.5-0.8,0.7-1.1
			c-3.2-2.1-6.8-4.6-10.5-7.4C-163.1,343.3-171.9,333.7-172.3,334z"/>
		
			<linearGradient id="SVGID_1_" gradientUnits="userSpaceOnUse" x1="8.0298" y1="783.6619" x2="46.1336" y2="783.6619" gradientTransform="matrix(-0.1008 -0.9949 -0.9949 0.1008 623.7179 292.7814)">
			<stop  offset="0" style="stop-color:#FBC315"/>
			<stop  offset="0.4969" style="stop-color:#E74A24"/>
			<stop  offset="1" style="stop-color:#E4262A"/>
		</linearGradient>
		<path class="st5" d="M-152.8,353.1c-12.7-9.6-21.2-19.7-20.9-20c0.3-0.3,9.2,9.3,21.8,18.8c3.7,2.8,7.3,5.3,10.5,7.4
			c0-0.1,0.1-0.1,0.1-0.2c0.5-1,0.9-2.1,1.2-3.2c-2.3-4.5-7.9-10.8-14.4-16.5c-1.5-1.3-3-2.4-4.5-3.4c-0.3,2.7-1,4.6-1,4.6
			c0,0-0.7-2.6-0.7-5.7c-1-0.6-2.1-1.2-3.1-1.7c0,3.1-0.9,5.4-0.9,5.4c0,0-1.8-3.1-2-6.8c0,0,0,0,0-0.1c-6.1-2.8-11.3-4.2-11.3-4.2
			c-0.1-0.1,0.4,13,10.1,23c0.3,0,0.7,0,1,0c3.5,0,6.5,1.3,6.5,1.3c0,0-1.8,1.1-4.6,1.5c1,0.8,2,1.5,3,2.1c2.5-0.9,4.7-1.2,4.7-1.2
			c0,0-1.1,1.1-3,2.2c6.7,3.7,12.8,5.6,16.7,5.8c0.5-0.6,1-1.2,1.4-1.8C-145.4,358.4-149,356-152.8,353.1z"/>
		<path class="st6" d="M-107.5,317.7c-2.4,0.2-4.9,0.6-7.3,1.3c-4.8,1.4-9.5,3.8-13.4,7.5c-2,1.8-3.6,4-5,6.3
			c-1.4,2.3-2.5,4.8-3.2,7.4c-0.7,2.6-1.2,5.2-1.3,7.8c0,0.6-0.1,1.3-0.1,2l0,0.9l0,0.8c0,1-0.1,2-0.3,3c-0.1,0.7-0.3,1.5-0.5,2.2
			c-0.3,1.1-0.7,2.2-1.2,3.2c0,0.1-0.1,0.1-0.1,0.2c-0.2,0.4-0.5,0.8-0.7,1.1c-0.4,0.6-0.9,1.2-1.4,1.8c-0.4,0.4-0.8,0.8-1.2,1.2
			c-2.9,2.5-6.9,4.3-11.1,5.4c-4.3,1.1-8.9,1.7-13.5,2.1c-4.7,0.3-9.4,0.4-14.2,0.2c4.5,1.8,9.2,2.9,14,3.7
			c4.8,0.7,9.8,0.9,14.8,0.3c2.5-0.3,5.1-0.9,7.6-1.8c2.5-0.9,5-2.1,7.2-3.8c2.3-1.7,4.2-3.9,5.7-6.4c0.7-1.3,1.3-2.6,1.8-3.9
			c0.5-1.3,0.8-2.7,1-4.1c0.2-1.4,0.4-2.7,0.4-4.1c0-0.3,0-0.7,0-1l0-0.9c0-0.5,0-1,0-1.6c0.1-2.1,0.4-4.2,0.8-6.2
			c0.9-4,2.7-7.8,5.3-11c2.6-3.2,6.1-6,10.1-8.2c4-2.2,8.3-3.9,13-5.2C-102.6,317.5-105,317.5-107.5,317.7z"/>
	</g>
	<g>
		<path class="st2" d="M-217.7,479.8c-1.9,0-3.4-0.2-4.7-0.7v-5.7c1.6,0.4,3,0.6,4.2,0.6c3.7,0,5.6-2.4,5.6-7.1v-40.3h6.8v40.1
			c0,4.3-1,7.5-3,9.8C-210.8,478.7-213.8,479.8-217.7,479.8z"/>
		<path class="st2" d="M-177.7,468.2l-1.3-4.4h-0.2c-1.5,1.9-3,3.2-4.6,3.9c-1.5,0.7-3.5,1-5.9,1c-3.1,0-5.5-0.8-7.2-2.5
			c-1.7-1.7-2.6-4-2.6-7.1c0-3.2,1.2-5.7,3.6-7.3c2.4-1.7,6.1-2.6,11-2.7l5.4-0.2v-1.7c0-2-0.5-3.5-1.4-4.5c-0.9-1-2.4-1.5-4.4-1.5
			c-1.6,0-3.2,0.2-4.6,0.7c-1.5,0.5-2.9,1-4.3,1.7l-2.2-4.8c1.7-0.9,3.6-1.6,5.6-2c2-0.5,3.9-0.7,5.8-0.7c4,0,7,0.9,9.1,2.6
			c2,1.7,3.1,4.5,3.1,8.2v21.2L-177.7,468.2L-177.7,468.2z M-187.7,463.7c2.4,0,4.4-0.7,5.9-2c1.5-1.4,2.2-3.3,2.2-5.7v-2.7l-4,0.2
			c-3.2,0.1-5.4,0.6-6.9,1.6c-1.4,0.9-2.1,2.4-2.1,4.3c0,1.4,0.4,2.5,1.3,3.3C-190.6,463.3-189.4,463.7-187.7,463.7z"/>
		<path class="st2" d="M-138.8,468.2h-6.7v-19.4c0-2.4-0.5-4.2-1.4-5.4c-0.9-1.2-2.3-1.8-4.3-1.8c-2.6,0-4.5,0.8-5.7,2.5
			c-1.2,1.7-1.8,4.5-1.8,8.4v15.7h-6.7v-31.5h5.2l0.9,4.1h0.3c0.9-1.5,2.1-2.7,3.8-3.5c1.7-0.8,3.5-1.2,5.5-1.2c4.8,0,8,1.7,9.6,5
			h0.5c0.9-1.6,2.2-2.8,3.9-3.6c1.7-0.9,3.6-1.3,5.8-1.3c3.8,0,6.5,0.9,8.2,2.8c1.7,1.9,2.6,4.8,2.6,8.7v20.5h-6.7v-19.4
			c0-2.4-0.5-4.2-1.4-5.4c-0.9-1.2-2.3-1.8-4.3-1.8c-2.6,0-4.5,0.8-5.7,2.4c-1.2,1.6-1.8,4.1-1.8,7.5L-138.8,468.2L-138.8,468.2
			L-138.8,468.2z"/>
		<path class="st2" d="M-97.6,468.8c-4.9,0-8.7-1.4-11.5-4.3c-2.8-2.9-4.1-6.8-4.1-11.8c0-5.1,1.3-9.2,3.8-12.1
			c2.6-2.9,6.1-4.4,10.6-4.4c4.2,0,7.4,1.3,9.9,3.8c2.4,2.5,3.6,6,3.6,10.4v3.6h-21c0.1,3.1,0.9,5.4,2.5,7c1.6,1.6,3.7,2.5,6.6,2.5
			c1.9,0,3.6-0.2,5.2-0.5c1.6-0.4,3.3-0.9,5.2-1.8v5.4c-1.6,0.8-3.3,1.3-5,1.7C-93.5,468.6-95.5,468.8-97.6,468.8z M-98.8,441.2
			c-2.1,0-3.8,0.7-5.1,2c-1.3,1.3-2,3.3-2.3,5.9h14.3c0-2.6-0.7-4.6-1.9-5.9C-95,441.9-96.7,441.2-98.8,441.2z"/>
		<path class="st2" d="M-58.3,459.3c0,3.1-1.1,5.4-3.4,7.1c-2.2,1.6-5.5,2.5-9.6,2.5c-4.2,0-7.6-0.6-10.1-1.9v-5.8
			c3.7,1.7,7.1,2.6,10.3,2.6c4.1,0,6.2-1.2,6.2-3.7c0-0.8-0.2-1.5-0.7-2c-0.5-0.5-1.2-1.1-2.2-1.7c-1-0.6-2.5-1.2-4.4-1.9
			c-3.6-1.4-6.1-2.8-7.4-4.2c-1.3-1.4-1.9-3.2-1.9-5.5c0-2.7,1.1-4.8,3.3-6.3c2.2-1.5,5.1-2.2,8.9-2.2c3.7,0,7.2,0.8,10.5,2.3
			l-2.2,5c-3.4-1.4-6.3-2.1-8.6-2.1c-3.5,0-5.3,1-5.3,3c0,1,0.5,1.8,1.4,2.5c0.9,0.7,2.9,1.6,6,2.8c2.6,1,4.5,1.9,5.7,2.8
			c1.2,0.8,2.1,1.8,2.6,2.9C-58.6,456.4-58.3,457.7-58.3,459.3z"/>
		<path class="st2" d="M-214.5,488.3v1.2h-5.3v3.7h4.3v1.2h-4.3v3.8h5.3v1.2h-6.8v-11.1L-214.5,488.3L-214.5,488.3z"/>
		<path class="st2" d="M-212,499.3v-7.8h0.8c0.2,0,0.3,0.1,0.4,0.3l0.1,0.9c0.3-0.4,0.7-0.7,1.1-0.9c0.4-0.2,0.9-0.3,1.5-0.3
			c0.4,0,0.8,0.1,1.1,0.2c0.3,0.1,0.6,0.3,0.8,0.6c0.2,0.3,0.4,0.6,0.5,0.9c0.1,0.4,0.2,0.8,0.2,1.2v5h-1.4v-5
			c0-0.6-0.1-1.1-0.4-1.4c-0.3-0.3-0.7-0.5-1.2-0.5c-0.4,0-0.8,0.1-1.1,0.3c-0.4,0.2-0.7,0.5-1,0.8v5.8L-212,499.3L-212,499.3z"/>
		<path class="st2" d="M-200.4,499.5c-0.6,0-1.1-0.2-1.4-0.5c-0.3-0.3-0.5-0.8-0.5-1.5v-4.8h-0.9c-0.1,0-0.2,0-0.2-0.1
			c-0.1,0-0.1-0.1-0.1-0.2v-0.6l1.3-0.2l0.3-2.4c0-0.1,0-0.1,0.1-0.2c0.1,0,0.1-0.1,0.2-0.1h0.7v2.7h2.2v1h-2.2v4.7
			c0,0.3,0.1,0.6,0.2,0.7c0.2,0.2,0.4,0.2,0.6,0.2c0.1,0,0.3,0,0.4-0.1c0.1,0,0.2-0.1,0.3-0.1c0.1,0,0.1-0.1,0.2-0.1
			c0.1,0,0.1-0.1,0.1-0.1c0.1,0,0.1,0,0.2,0.1l0.4,0.7c-0.2,0.2-0.5,0.4-0.9,0.5C-199.7,499.4-200,499.5-200.4,499.5z"/>
		<path class="st2" d="M-193.3,491.4c0.5,0,0.9,0.1,1.3,0.2c0.4,0.2,0.7,0.4,1,0.7c0.3,0.3,0.5,0.7,0.7,1.1c0.2,0.4,0.2,0.9,0.2,1.5
			c0,0.2,0,0.4-0.1,0.4c0,0.1-0.1,0.1-0.3,0.1h-5.2c0,0.5,0.1,0.9,0.2,1.3c0.1,0.4,0.3,0.7,0.5,0.9c0.2,0.2,0.5,0.4,0.8,0.5
			c0.3,0.1,0.6,0.2,1,0.2c0.3,0,0.6,0,0.9-0.1c0.3-0.1,0.5-0.2,0.6-0.3c0.2-0.1,0.3-0.2,0.5-0.3c0.1-0.1,0.2-0.1,0.3-0.1
			c0.1,0,0.2,0,0.3,0.1l0.4,0.5c-0.2,0.2-0.4,0.4-0.6,0.5c-0.2,0.2-0.5,0.3-0.8,0.4c-0.3,0.1-0.5,0.2-0.8,0.2
			c-0.3,0-0.6,0.1-0.9,0.1c-0.5,0-1-0.1-1.5-0.3c-0.5-0.2-0.8-0.5-1.2-0.8c-0.3-0.4-0.6-0.8-0.8-1.3c-0.2-0.5-0.3-1.1-0.3-1.8
			c0-0.5,0.1-1.1,0.3-1.5c0.2-0.5,0.4-0.9,0.7-1.2c0.3-0.3,0.7-0.6,1.2-0.8C-194.3,491.5-193.8,491.4-193.3,491.4z M-193.2,492.4
			c-0.7,0-1.2,0.2-1.6,0.6c-0.4,0.4-0.6,0.9-0.7,1.6h4.3c0-0.3,0-0.6-0.1-0.9c-0.1-0.3-0.2-0.5-0.4-0.7c-0.2-0.2-0.4-0.3-0.6-0.5
			C-192.6,492.5-192.9,492.4-193.2,492.4z"/>
		<path class="st2" d="M-187.6,499.3v-7.8h0.8c0.1,0,0.3,0,0.3,0.1c0.1,0.1,0.1,0.2,0.1,0.3l0.1,1.2c0.3-0.5,0.6-1,1-1.3
			c0.4-0.3,0.9-0.5,1.4-0.5c0.2,0,0.4,0,0.6,0.1c0.2,0,0.3,0.1,0.5,0.2l-0.2,1c0,0.1-0.1,0.2-0.2,0.2c-0.1,0-0.2,0-0.3-0.1
			c-0.1-0.1-0.4-0.1-0.6-0.1c-0.5,0-0.9,0.1-1.2,0.4c-0.3,0.3-0.6,0.7-0.8,1.2v5L-187.6,499.3L-187.6,499.3z"/>
		<path class="st2" d="M-180.8,502v-10.5h0.8c0.2,0,0.3,0.1,0.4,0.3l0.1,0.9c0.3-0.4,0.7-0.7,1.2-1c0.4-0.2,0.9-0.4,1.5-0.4
			c0.4,0,0.9,0.1,1.2,0.3c0.4,0.2,0.7,0.4,0.9,0.8c0.3,0.3,0.5,0.8,0.6,1.3c0.1,0.5,0.2,1.1,0.2,1.7c0,0.6-0.1,1.1-0.2,1.6
			c-0.2,0.5-0.4,0.9-0.7,1.3c-0.3,0.4-0.6,0.6-1.1,0.9c-0.4,0.2-0.9,0.3-1.4,0.3c-0.5,0-0.9-0.1-1.2-0.2c-0.3-0.2-0.6-0.4-0.9-0.7
			v3.5L-180.8,502L-180.8,502z M-177.3,492.5c-0.4,0-0.8,0.1-1.2,0.3c-0.3,0.2-0.7,0.5-0.9,0.9v3.8c0.3,0.3,0.5,0.6,0.8,0.7
			c0.3,0.1,0.6,0.2,1,0.2c0.7,0,1.3-0.3,1.7-0.8c0.4-0.5,0.6-1.3,0.6-2.2c0-0.5,0-0.9-0.1-1.3c-0.1-0.4-0.2-0.7-0.4-0.9
			c-0.2-0.2-0.4-0.4-0.6-0.5C-176.7,492.5-177,492.5-177.3,492.5z"/>
		<path class="st2" d="M-171.6,499.3v-7.8h0.8c0.1,0,0.3,0,0.3,0.1c0.1,0.1,0.1,0.2,0.1,0.3l0.1,1.2c0.3-0.5,0.6-1,1-1.3
			c0.4-0.3,0.9-0.5,1.4-0.5c0.2,0,0.4,0,0.6,0.1c0.2,0,0.3,0.1,0.5,0.2l-0.2,1c0,0.1-0.1,0.2-0.2,0.2c-0.1,0-0.2,0-0.3-0.1
			c-0.1-0.1-0.4-0.1-0.6-0.1c-0.5,0-0.9,0.1-1.2,0.4c-0.3,0.3-0.6,0.7-0.8,1.2v5L-171.6,499.3L-171.6,499.3z"/>
		<path class="st2" d="M-162.9,489c0,0.1,0,0.3-0.1,0.4c-0.1,0.1-0.1,0.2-0.2,0.3c-0.1,0.1-0.2,0.2-0.3,0.2
			c-0.1,0.1-0.2,0.1-0.4,0.1c-0.1,0-0.3,0-0.4-0.1c-0.1-0.1-0.2-0.1-0.3-0.2c-0.1-0.1-0.2-0.2-0.2-0.3c-0.1-0.1-0.1-0.2-0.1-0.4
			c0-0.1,0-0.3,0.1-0.4c0.1-0.1,0.1-0.2,0.2-0.3c0.1-0.1,0.2-0.2,0.3-0.2c0.1,0,0.2-0.1,0.4-0.1c0.1,0,0.3,0,0.4,0.1
			c0.1,0.1,0.2,0.1,0.3,0.2c0.1,0.1,0.2,0.2,0.2,0.3C-163,488.8-162.9,488.9-162.9,489z M-163.2,491.5v7.8h-1.4v-7.8H-163.2z"/>
		<path class="st2" d="M-155.7,492.8c-0.1,0.1-0.2,0.2-0.3,0.2c-0.1,0-0.2,0-0.3-0.1c-0.1-0.1-0.2-0.1-0.4-0.2
			c-0.1-0.1-0.3-0.1-0.5-0.2c-0.2-0.1-0.4-0.1-0.7-0.1c-0.2,0-0.4,0-0.6,0.1c-0.2,0.1-0.3,0.1-0.5,0.2c-0.1,0.1-0.2,0.2-0.3,0.4
			c-0.1,0.1-0.1,0.3-0.1,0.4c0,0.2,0.1,0.4,0.2,0.5c0.1,0.1,0.3,0.3,0.5,0.3c0.2,0.1,0.4,0.2,0.7,0.3c0.2,0.1,0.5,0.2,0.7,0.2
			c0.3,0.1,0.5,0.2,0.7,0.3c0.2,0.1,0.5,0.2,0.6,0.4c0.2,0.2,0.3,0.3,0.5,0.6c0.1,0.2,0.2,0.5,0.2,0.8c0,0.4-0.1,0.7-0.2,1
			c-0.1,0.3-0.3,0.6-0.6,0.8c-0.3,0.2-0.6,0.4-0.9,0.5c-0.4,0.1-0.8,0.2-1.3,0.2c-0.5,0-1-0.1-1.5-0.3c-0.4-0.2-0.8-0.4-1.1-0.7
			l0.3-0.5c0-0.1,0.1-0.1,0.1-0.2c0.1,0,0.1-0.1,0.2-0.1c0.1,0,0.2,0,0.3,0.1c0.1,0.1,0.2,0.2,0.4,0.2c0.1,0.1,0.3,0.2,0.5,0.2
			c0.2,0.1,0.5,0.1,0.8,0.1c0.3,0,0.5,0,0.7-0.1c0.2-0.1,0.4-0.2,0.5-0.3c0.1-0.1,0.2-0.3,0.3-0.4c0.1-0.2,0.1-0.3,0.1-0.5
			c0-0.2-0.1-0.4-0.2-0.5c-0.1-0.1-0.3-0.3-0.5-0.4s-0.4-0.2-0.7-0.3c-0.2-0.1-0.5-0.2-0.8-0.2c-0.3-0.1-0.5-0.2-0.8-0.3
			c-0.2-0.1-0.5-0.2-0.7-0.4c-0.2-0.2-0.3-0.4-0.5-0.6c-0.1-0.2-0.2-0.5-0.2-0.9c0-0.3,0.1-0.6,0.2-0.9c0.1-0.3,0.3-0.5,0.5-0.7
			c0.2-0.2,0.5-0.4,0.9-0.5c0.3-0.1,0.7-0.2,1.2-0.2c0.5,0,1,0.1,1.4,0.2c0.4,0.2,0.8,0.4,1.1,0.7L-155.7,492.8z"/>
		<path class="st2" d="M-149.8,491.4c0.5,0,0.9,0.1,1.3,0.2c0.4,0.2,0.7,0.4,1,0.7c0.3,0.3,0.5,0.7,0.7,1.1c0.2,0.4,0.2,0.9,0.2,1.5
			c0,0.2,0,0.4-0.1,0.4c0,0.1-0.1,0.1-0.3,0.1h-5.2c0,0.5,0.1,0.9,0.2,1.3c0.1,0.4,0.3,0.7,0.5,0.9c0.2,0.2,0.5,0.4,0.8,0.5
			c0.3,0.1,0.6,0.2,1,0.2c0.3,0,0.6,0,0.9-0.1c0.3-0.1,0.5-0.2,0.6-0.3c0.2-0.1,0.3-0.2,0.5-0.3c0.1-0.1,0.2-0.1,0.3-0.1
			c0.1,0,0.2,0,0.3,0.1l0.4,0.5c-0.2,0.2-0.4,0.4-0.6,0.5c-0.2,0.2-0.5,0.3-0.8,0.4c-0.3,0.1-0.5,0.2-0.8,0.2
			c-0.3,0-0.6,0.1-0.9,0.1c-0.5,0-1-0.1-1.5-0.3c-0.5-0.2-0.9-0.5-1.2-0.8c-0.3-0.4-0.6-0.8-0.8-1.3c-0.2-0.5-0.3-1.1-0.3-1.8
			c0-0.5,0.1-1.1,0.3-1.5c0.2-0.5,0.4-0.9,0.7-1.2c0.3-0.3,0.7-0.6,1.2-0.8C-150.8,491.5-150.3,491.4-149.8,491.4z M-149.7,492.4
			c-0.7,0-1.2,0.2-1.6,0.6c-0.4,0.4-0.6,0.9-0.7,1.6h4.3c0-0.3,0-0.6-0.1-0.9c-0.1-0.3-0.2-0.5-0.4-0.7c-0.2-0.2-0.4-0.3-0.6-0.5
			C-149.1,492.5-149.4,492.4-149.7,492.4z"/>
		<path class="st2" d="M-134.7,495.7c0.1,0.1,0.1,0.3,0.2,0.4c0.1-0.1,0.1-0.3,0.2-0.4c0.1-0.1,0.1-0.3,0.2-0.4l3.8-6.8
			c0.1-0.1,0.1-0.2,0.2-0.2c0.1,0,0.2,0,0.3,0h1.1v11.1h-1.3v-8.1c0-0.1,0-0.2,0-0.4c0-0.1,0-0.2,0-0.4l-3.8,6.9
			c-0.1,0.2-0.3,0.4-0.5,0.4h-0.2c-0.2,0-0.4-0.1-0.5-0.4l-3.9-7c0,0.1,0,0.3,0,0.4c0,0.1,0,0.2,0,0.4v8.1h-1.3v-11.1h1.1
			c0.1,0,0.2,0,0.3,0c0.1,0,0.1,0.1,0.2,0.2l3.8,6.8C-134.8,495.5-134.7,495.6-134.7,495.7z"/>
		<path class="st2" d="M-119.9,499.3h-0.6c-0.1,0-0.2,0-0.3-0.1c-0.1,0-0.1-0.1-0.2-0.3l-0.2-0.7c-0.2,0.2-0.4,0.4-0.6,0.5
			c-0.2,0.1-0.4,0.3-0.6,0.4c-0.2,0.1-0.4,0.2-0.7,0.2c-0.2,0-0.5,0.1-0.8,0.1c-0.3,0-0.6,0-0.9-0.1c-0.3-0.1-0.5-0.2-0.7-0.4
			c-0.2-0.2-0.4-0.4-0.5-0.6c-0.1-0.3-0.2-0.6-0.2-0.9c0-0.3,0.1-0.6,0.3-0.9c0.2-0.3,0.4-0.5,0.8-0.8c0.4-0.2,0.9-0.4,1.5-0.5
			c0.6-0.1,1.4-0.2,2.3-0.2v-0.6c0-0.6-0.1-1.1-0.4-1.4c-0.3-0.3-0.6-0.5-1.2-0.5c-0.3,0-0.6,0-0.8,0.1c-0.2,0.1-0.4,0.2-0.6,0.3
			c-0.2,0.1-0.3,0.2-0.4,0.3c-0.1,0.1-0.2,0.1-0.4,0.1c-0.1,0-0.2,0-0.2-0.1c-0.1,0-0.1-0.1-0.2-0.2l-0.2-0.4
			c0.4-0.4,0.9-0.7,1.4-0.9c0.5-0.2,1.1-0.3,1.7-0.3c0.4,0,0.8,0.1,1.2,0.2c0.3,0.1,0.6,0.3,0.9,0.6c0.2,0.3,0.4,0.6,0.5,0.9
			c0.1,0.4,0.2,0.8,0.2,1.2L-119.9,499.3L-119.9,499.3L-119.9,499.3L-119.9,499.3z M-123.5,498.5c0.2,0,0.5,0,0.7-0.1
			c0.2,0,0.4-0.1,0.6-0.2c0.2-0.1,0.3-0.2,0.5-0.3c0.2-0.1,0.3-0.3,0.5-0.4v-1.6c-0.6,0-1.2,0-1.6,0.1c-0.4,0.1-0.8,0.2-1.1,0.3
			c-0.3,0.1-0.5,0.3-0.6,0.5c-0.1,0.2-0.2,0.4-0.2,0.6c0,0.2,0,0.4,0.1,0.5c0.1,0.1,0.2,0.3,0.3,0.4c0.1,0.1,0.2,0.2,0.4,0.2
			C-123.8,498.5-123.7,498.5-123.5,498.5z"/>
		<path class="st2" d="M-115.4,489c0,0.1,0,0.3-0.1,0.4c-0.1,0.1-0.1,0.2-0.2,0.3c-0.1,0.1-0.2,0.2-0.3,0.2
			c-0.1,0.1-0.2,0.1-0.4,0.1c-0.1,0-0.3,0-0.4-0.1c-0.1-0.1-0.2-0.1-0.3-0.2c-0.1-0.1-0.2-0.2-0.2-0.3c-0.1-0.1-0.1-0.2-0.1-0.4
			c0-0.1,0-0.3,0.1-0.4c0.1-0.1,0.1-0.2,0.2-0.3c0.1-0.1,0.2-0.2,0.3-0.2c0.1,0,0.2-0.1,0.4-0.1s0.3,0,0.4,0.1
			c0.1,0.1,0.2,0.1,0.3,0.2c0.1,0.1,0.2,0.2,0.2,0.3C-115.4,488.8-115.4,488.9-115.4,489z M-115.7,491.5v7.8h-1.4v-7.8H-115.7z"/>
		<path class="st2" d="M-111.1,487.9v11.4h-1.4v-11.4H-111.1z"/>
		<path class="st2" d="M-98.5,490c0,0.1-0.1,0.1-0.1,0.2c-0.1,0-0.1,0.1-0.2,0.1c-0.1,0-0.2,0-0.3-0.1s-0.3-0.2-0.4-0.3
			c-0.2-0.1-0.4-0.2-0.6-0.3c-0.3-0.1-0.6-0.1-0.9-0.1c-0.3,0-0.6,0-0.9,0.1c-0.3,0.1-0.5,0.2-0.6,0.4c-0.2,0.2-0.3,0.3-0.4,0.5
			c-0.1,0.2-0.1,0.4-0.1,0.7c0,0.3,0.1,0.6,0.2,0.8c0.2,0.2,0.4,0.4,0.6,0.5c0.2,0.1,0.5,0.3,0.9,0.4c0.3,0.1,0.6,0.2,1,0.3
			c0.3,0.1,0.7,0.2,1,0.4c0.3,0.1,0.6,0.3,0.8,0.5c0.3,0.2,0.4,0.5,0.6,0.8c0.2,0.3,0.2,0.7,0.2,1.2c0,0.5-0.1,0.9-0.2,1.4
			c-0.2,0.4-0.4,0.8-0.7,1.1c-0.3,0.3-0.7,0.6-1.2,0.7c-0.5,0.2-1,0.3-1.6,0.3c-0.7,0-1.4-0.1-2-0.4c-0.6-0.3-1.1-0.6-1.5-1.1
			l0.4-0.7c0-0.1,0.1-0.1,0.1-0.1c0.1,0,0.1-0.1,0.2-0.1c0.1,0,0.2,0.1,0.4,0.2c0.1,0.1,0.3,0.2,0.5,0.4c0.2,0.1,0.5,0.3,0.8,0.4
			c0.3,0.1,0.7,0.2,1.1,0.2c0.4,0,0.7,0,1-0.1c0.3-0.1,0.5-0.2,0.7-0.4s0.3-0.4,0.4-0.6c0.1-0.2,0.2-0.5,0.2-0.8
			c0-0.3-0.1-0.6-0.2-0.8c-0.2-0.2-0.4-0.4-0.6-0.5c-0.2-0.1-0.5-0.3-0.8-0.4s-0.6-0.2-1-0.3c-0.3-0.1-0.7-0.2-1-0.4
			c-0.3-0.1-0.6-0.3-0.8-0.5c-0.3-0.2-0.4-0.5-0.6-0.8c-0.2-0.3-0.2-0.7-0.2-1.2c0-0.4,0.1-0.8,0.2-1.1c0.2-0.4,0.4-0.7,0.7-1
			c0.3-0.3,0.6-0.5,1.1-0.7c0.4-0.2,0.9-0.3,1.5-0.3c0.6,0,1.2,0.1,1.7,0.3c0.5,0.2,1,0.5,1.3,0.9L-98.5,490z"/>
		<path class="st2" d="M-92.5,491.4c0.5,0,0.9,0.1,1.3,0.2c0.4,0.2,0.7,0.4,1,0.7c0.3,0.3,0.5,0.7,0.7,1.1c0.2,0.4,0.2,0.9,0.2,1.5
			c0,0.2,0,0.4-0.1,0.4c0,0.1-0.1,0.1-0.3,0.1h-5.2c0,0.5,0.1,0.9,0.2,1.3c0.1,0.4,0.3,0.7,0.5,0.9c0.2,0.2,0.5,0.4,0.8,0.5
			c0.3,0.1,0.6,0.2,1,0.2c0.3,0,0.6,0,0.9-0.1c0.3-0.1,0.5-0.2,0.6-0.3c0.2-0.1,0.3-0.2,0.5-0.3c0.1-0.1,0.2-0.1,0.3-0.1
			c0.1,0,0.2,0,0.3,0.1l0.4,0.5c-0.2,0.2-0.4,0.4-0.6,0.5c-0.2,0.2-0.5,0.3-0.8,0.4c-0.3,0.1-0.6,0.2-0.8,0.2
			c-0.3,0-0.6,0.1-0.9,0.1c-0.5,0-1-0.1-1.5-0.3c-0.5-0.2-0.9-0.5-1.2-0.8c-0.3-0.4-0.6-0.8-0.8-1.3c-0.2-0.5-0.3-1.1-0.3-1.8
			c0-0.5,0.1-1.1,0.3-1.5c0.2-0.5,0.4-0.9,0.7-1.2c0.3-0.3,0.7-0.6,1.2-0.8C-93.6,491.5-93.1,491.4-92.5,491.4z M-92.5,492.4
			c-0.7,0-1.2,0.2-1.6,0.6c-0.4,0.4-0.6,0.9-0.7,1.6h4.3c0-0.3,0-0.6-0.1-0.9c-0.1-0.3-0.2-0.5-0.4-0.7c-0.2-0.2-0.4-0.3-0.6-0.5
			C-91.9,492.5-92.2,492.4-92.5,492.4z"/>
		<path class="st2" d="M-86.9,499.3v-7.8h0.8c0.1,0,0.3,0,0.3,0.1c0.1,0.1,0.1,0.2,0.1,0.3l0.1,1.2c0.3-0.5,0.6-1,1-1.3
			c0.4-0.3,0.9-0.5,1.4-0.5c0.2,0,0.4,0,0.6,0.1s0.3,0.1,0.5,0.2l-0.2,1c0,0.1-0.1,0.2-0.2,0.2c-0.1,0-0.2,0-0.3-0.1
			c-0.1-0.1-0.4-0.1-0.6-0.1c-0.5,0-0.9,0.1-1.2,0.4c-0.3,0.3-0.6,0.7-0.8,1.2v5L-86.9,499.3L-86.9,499.3z"/>
		<path class="st2" d="M-81,491.5h1.1c0.1,0,0.2,0,0.3,0.1c0.1,0.1,0.1,0.1,0.2,0.2l2,5c0.1,0.2,0.1,0.4,0.2,0.6
			c0,0.2,0.1,0.4,0.1,0.5c0-0.2,0.1-0.4,0.1-0.5c0-0.2,0.1-0.4,0.2-0.6l2-5c0-0.1,0.1-0.1,0.2-0.2c0.1-0.1,0.2-0.1,0.3-0.1h1.1
			l-3.2,7.8h-1.2L-81,491.5z"/>
		<path class="st2" d="M-68.6,491.4c0.5,0,0.9,0.1,1.3,0.2c0.4,0.2,0.7,0.4,1,0.7c0.3,0.3,0.5,0.7,0.7,1.1c0.2,0.4,0.2,0.9,0.2,1.5
			c0,0.2,0,0.4-0.1,0.4c0,0.1-0.1,0.1-0.3,0.1h-5.2c0,0.5,0.1,0.9,0.2,1.3c0.1,0.4,0.3,0.7,0.5,0.9c0.2,0.2,0.5,0.4,0.8,0.5
			c0.3,0.1,0.6,0.2,1,0.2c0.3,0,0.6,0,0.9-0.1c0.3-0.1,0.5-0.2,0.6-0.3c0.2-0.1,0.3-0.2,0.5-0.3c0.1-0.1,0.2-0.1,0.3-0.1
			c0.1,0,0.2,0,0.3,0.1l0.4,0.5c-0.2,0.2-0.4,0.4-0.6,0.5c-0.2,0.2-0.5,0.3-0.8,0.4c-0.3,0.1-0.5,0.2-0.8,0.2s-0.6,0.1-0.9,0.1
			c-0.5,0-1-0.1-1.5-0.3c-0.5-0.2-0.9-0.5-1.2-0.8c-0.3-0.4-0.6-0.8-0.8-1.3c-0.2-0.5-0.3-1.1-0.3-1.8c0-0.5,0.1-1.1,0.3-1.5
			c0.2-0.5,0.4-0.9,0.7-1.2c0.3-0.3,0.7-0.6,1.2-0.8C-69.7,491.5-69.2,491.4-68.6,491.4z M-68.6,492.4c-0.7,0-1.2,0.2-1.6,0.6
			c-0.4,0.4-0.6,0.9-0.7,1.6h4.3c0-0.3,0-0.6-0.1-0.9c-0.1-0.3-0.2-0.5-0.4-0.7c-0.2-0.2-0.4-0.3-0.6-0.5
			C-68,492.5-68.2,492.4-68.6,492.4z"/>
		<path class="st2" d="M-63,499.3v-7.8h0.8c0.1,0,0.3,0,0.3,0.1s0.1,0.2,0.1,0.3l0.1,1.2c0.3-0.5,0.6-1,1-1.3
			c0.4-0.3,0.9-0.5,1.4-0.5c0.2,0,0.4,0,0.6,0.1c0.2,0,0.3,0.1,0.5,0.2l-0.2,1c0,0.1-0.1,0.2-0.2,0.2c-0.1,0-0.2,0-0.3-0.1
			c-0.1-0.1-0.4-0.1-0.6-0.1c-0.5,0-0.9,0.1-1.2,0.4c-0.3,0.3-0.6,0.7-0.8,1.2v5L-63,499.3L-63,499.3z"/>
	</g>
</g>
</svg>
